<svg width="24" height="24" viewBox="0 0 24 24" class="ng-star-inserted"><g fill="#12326B" fill-rule="evenodd"><path d="M19.436 19.489h-3.284v-5.211c0-1.309-.476-2.202-1.665-2.202-.907 0-1.447.602-1.685 1.184-.087.208-.108.499-.108.79v5.439H9.41s.044-8.826 0-9.74h3.285v1.38c.437-.664 1.217-1.61 2.96-1.61 2.162 0 3.782 1.393 3.782 4.385v5.585zM5.95 8.419h-.022c-1.102 0-1.815-.747-1.815-1.682 0-.955.735-1.683 1.858-1.683 1.124 0 1.815.728 1.837 1.683 0 .935-.713 1.683-1.858 1.683zM4.307 19.49h3.285v-9.74H4.307v9.74zM21.14 1.434H2.607C1.72 1.434 1 2.126 1 2.979v18.478c0 .853.72 1.546 1.607 1.546h18.532c.888 0 1.608-.693 1.608-1.546V2.979c0-.853-.72-1.545-1.608-1.545z"></path></g></svg>