<svg width="24" height="24" viewBox="0 0 24 24" class="ng-star-inserted"><g fill="#12326B" fill-rule="evenodd"><path d="M23.661 5.196a9.197 9.197 0 01-2.67.737 4.688 4.688 0 002.044-2.591 9.265 9.265 0 01-2.952 1.137A4.627 4.627 0 0016.689 3c-2.567 0-4.649 2.098-4.649 4.685 0 .367.041.724.12 1.067-3.863-.195-7.29-2.06-9.582-4.894-.4.692-.63 1.496-.63 2.355 0 1.625.821 3.058 2.068 3.899a4.6 4.6 0 01-2.105-.587v.06a4.678 4.678 0 003.73 4.592 4.623 4.623 0 01-2.1.08c.591 1.86 2.308 3.215 4.342 3.253A9.284 9.284 0 011 19.449a13.089 13.089 0 007.127 2.104c8.552 0 13.228-7.137 13.228-13.326 0-.203-.005-.406-.013-.606a9.474 9.474 0 002.319-2.425"></path></g></svg>