<svg width="30" height="24" viewBox="0 0 34 24" class="ng-star-inserted"><path fill="#12326B" d="M13.4643769,16.4258231 L13.4633181,6.83840584 L22.6179064,11.6486426 L13.4643769,16.4258231 Z M33.5650828,5.17705602 C33.5650828,5.17705602 33.2336711,2.82578753 32.2182593,1.79037632 C30.9296711,0.430799307 29.4854358,0.424401298 28.8236711,0.345492514 C24.0822593,0 16.9701416,0 16.9701416,0 L16.9553181,0 C16.9553181,0 9.84320047,0 5.10178871,0.345492514 C4.43896518,0.424401298 2.99578871,0.430799307 1.70614165,1.79037632 C0.690729882,2.82578753 0.360376941,5.17705602 0.360376941,5.17705602 C0.360376941,5.17705602 0.0215534118,7.93886346 0.0215534118,10.6996046 L0.0215534118,13.2886658 C0.0215534118,16.0504732 0.360376941,18.8112143 0.360376941,18.8112143 C0.360376941,18.8112143 0.690729882,21.1624828 1.70614165,22.1978939 C2.99578871,23.5574711 4.68884753,23.5148176 5.44272988,23.6566402 C8.15331812,23.9189585 16.9627299,24 16.9627299,24 C16.9627299,24 24.0822593,23.9893367 28.8236711,23.6438441 C29.4854358,23.563869 30.9296711,23.5574711 32.2182593,22.1978939 C33.2336711,21.1624828 33.5650828,18.8112143 33.5650828,18.8112143 C33.5650828,18.8112143 33.9039064,16.0504732 33.9039064,13.2886658 L33.9039064,10.6996046 C33.9039064,7.93886346 33.5650828,5.17705602 33.5650828,5.17705602 L33.5650828,5.17705602 Z"></path></svg>